<?xml version="1.0" encoding="UTF-8"?>
<svg version="1.1" xmlns="http://www.w3.org/2000/svg" width="1024" height="1024">
<path d="M0 0 C0.33 0.66 0.66 1.32 1 2 C5.95 2 10.9 2 16 2 C16.33 1.34 16.66 0.68 17 0 C17.99 0.495 17.99 0.495 19 1 C20.99988501 1.08190381 23.00264443 1.0949834 25.00415039 1.08007812 C25.65371389 1.07727341 26.3032774 1.07446869 26.97252464 1.07157898 C28.44180556 1.06522004 29.91107851 1.05680831 31.38033867 1.04673767 C35.76279796 1.01851346 40.1452955 1.01140828 44.52783203 1.00390625 C46.04821972 1.00110783 46.04821972 1.00110783 47.59932232 0.99825287 C62.44587796 0.98173079 77.29203086 1.09959035 92.13814497 1.20170593 C94.62292454 1.21876257 97.10770563 1.2355779 99.59248734 1.25231934 C108.93378691 1.31532671 118.27507491 1.37990078 127.61635745 1.44538307 C136.40298561 1.50691623 145.18962426 1.56688616 153.97626388 1.62675762 C171.98418766 1.74949552 189.99209812 1.87409218 208 2 C208.06879876 48.83765126 208.12159594 95.67529713 208.15319599 142.51298904 C208.15694771 148.0536627 208.16083072 153.59433626 208.16479492 159.13500977 C208.16558185 160.23797009 208.16636878 161.3409304 208.16717956 162.47731376 C208.18020218 180.29188688 208.20383855 198.10643069 208.23145839 215.92098647 C208.25960036 234.22617624 208.27619477 252.53135075 208.28226548 270.83656126 C208.28636377 282.11457593 208.29926603 293.39250775 208.3237494 304.67049689 C208.33971536 312.42415965 208.34437604 320.17778013 208.34050413 327.93145811 C208.33859932 332.39222385 208.34133456 336.85284571 208.35761642 341.31358528 C208.56893261 402.37743207 193.65298625 458.58583236 151 504 C149.14263655 506.10221362 147.30451472 508.21933428 145.47265625 510.34375 C142.61952303 513.55257887 142.61952303 513.55257887 141 515 C140.34 515 139.68 515 139 515 C139 515.66 139 516.32 139 517 C136.02674605 519.76470909 132.79851356 522.21978331 129.60742188 524.72802734 C128.08419448 525.93337588 126.58050847 527.16329988 125.078125 528.39453125 C99.06831418 549.24954796 67.42524595 562.85920452 35 570 C34.26458984 570.16516113 33.52917969 570.33032227 32.77148438 570.50048828 C6.17286137 576.14598179 -24.63157272 575.01221719 -51 569 C-51.8470752 568.81276367 -52.69415039 568.62552734 -53.56689453 568.43261719 C-71.63094792 564.34623824 -88.72494769 557.80155506 -105 549 C-105.92619141 548.50282471 -105.92619141 548.50282471 -106.87109375 547.99560547 C-115.03689417 543.57821819 -122.62608697 538.6413013 -130 533 C-131.10752303 532.17244066 -132.21562146 531.34565095 -133.32421875 530.51953125 C-138.66260249 526.51270163 -143.80503168 522.48950697 -148.40625 517.62890625 C-150.12076788 515.87656812 -151.93499252 514.32576521 -153.8125 512.75 C-166.80960778 501.4808314 -176.71978348 487.22057383 -186.06591797 472.91577148 C-186.54947754 472.17657471 -187.03303711 471.43737793 -187.53125 470.67578125 C-187.95986328 470.01489502 -188.38847656 469.35400879 -188.83007812 468.6730957 C-190.02953962 466.85427548 -190.02953962 466.85427548 -192 465 C-192.70535944 463.68672536 -193.36895391 462.35055657 -194 461 C-194.30566895 460.35949707 -194.61133789 459.71899414 -194.92626953 459.05908203 C-199.50429992 449.24167231 -203.76960713 439.36051698 -207.5 429.1875 C-208.00684326 427.81972412 -208.00684326 427.81972412 -208.52392578 426.42431641 C-209.90056924 422.5903466 -211.11525817 418.98161826 -211.59375 414.92578125 C-211.7278125 413.96027344 -211.861875 412.99476563 -212 412 C-212.66 411.67 -213.32 411.34 -214 411 C-214.59765625 408.78515625 -214.59765625 408.78515625 -215.0625 406.0625 C-215.66805467 402.41227791 -215.66805467 402.41227791 -217 399 C-217.1848903 397.44163894 -217.32286649 395.87759833 -217.4375 394.3125 C-217.79850372 389.81958569 -218.34974085 385.38668408 -218.9921875 380.92578125 C-219.95346256 373.90882342 -220.47599927 366.95315916 -220.6875 359.875 C-220.7280249 358.59689453 -220.7685498 357.31878906 -220.81030273 356.00195312 C-221.4724741 330.69594341 -220.53839624 305.30333636 -220 280 C-212.42351002 279.97442922 -204.84703137 279.95704137 -197.27050781 279.94506836 C-194.69856348 279.94007148 -192.12662194 279.93327173 -189.5546875 279.92456055 C-185.83593044 279.9122898 -182.11721127 279.90672509 -178.3984375 279.90234375 C-176.7022377 279.89460182 -176.7022377 279.89460182 -174.97177124 279.88670349 C-166.94368522 279.88615229 -158.99963803 280.33533396 -151 281 C-151.00222061 281.79052765 -151.00444122 282.5810553 -151.00672913 283.39553833 C-151.02701062 290.95278263 -151.04211309 298.51001321 -151.05181217 306.06727791 C-151.0569666 309.94981194 -151.06392355 313.83232296 -151.07543945 317.71484375 C-151.80097542 349.70928359 -151.80097542 349.70928359 -148.25 381.375 C-148.0744458 382.27943848 -147.8988916 383.18387695 -147.71801758 384.11572266 C-141.82396017 413.2687366 -128.08814498 442.11714372 -106.2421875 462.65234375 C-105 464 -105 464 -105 466 C-104.40832031 466.268125 -103.81664062 466.53625 -103.20703125 466.8125 C-100.98085245 468.0103024 -99.50763525 469.25936491 -97.6875 471 C-67.5700356 497.77726503 -29.04334495 505.0711095 10 503 C37.45892546 500.57750988 65.17529879 489.06110145 86 471 C86.50821289 470.56187988 87.01642578 470.12375977 87.54003906 469.67236328 C115.02539519 445.80531076 133.18627384 413.30351815 138 377 C138.06460219 374.87588004 138.08611079 372.74997095 138.0625 370.625 C138.04896484 369.03558594 138.04896484 369.03558594 138.03515625 367.4140625 C138.02355469 366.61742187 138.01195312 365.82078125 138 365 C138.66 365 139.32 365 140 365 C140 267.98 140 170.96 140 71 C68.01683085 71.07923719 68.01683085 71.07923719 -3.96630859 71.18017578 C-17.85864258 71.18920898 -17.85864258 71.18920898 -24.35317993 71.19088745 C-28.90894501 71.19275787 -33.46466392 71.20028097 -38.02041626 71.21115112 C-43.82152651 71.22481061 -49.62256906 71.22899326 -55.4236939 71.22614455 C-57.55897056 71.22674073 -59.69424945 71.23074116 -61.82951236 71.23843026 C-64.70156349 71.24829668 -67.5733475 71.2460101 -70.44540405 71.24050903 C-71.71448073 71.24924703 -71.71448073 71.24924703 -73.00919533 71.25816154 C-78.77175035 71.22824965 -78.77175035 71.22824965 -81 69 C-81.20254517 66.21591187 -81.20254517 66.21591187 -81.13525391 62.62255859 C-81.12106163 61.64188667 -81.12106163 61.64188667 -81.10658264 60.6414032 C-81.07285906 58.47679954 -81.02475777 56.31276337 -80.9765625 54.1484375 C-80.95040003 52.64915457 -80.92513264 51.14985576 -80.90072632 49.65054321 C-80.83402943 45.70149687 -80.75514698 41.75278353 -80.67376709 37.80401611 C-80.59289152 33.77572425 -80.52348377 29.74723684 -80.453125 25.71875 C-80.31333783 17.81226261 -80.1606832 9.90609018 -80 2 C-77.22601226 1.07533742 -75.57483987 0.87360654 -72.71337891 0.87060547 C-71.84528595 0.86749359 -70.97719299 0.86438171 -70.08279419 0.86117554 C-68.6689595 0.86415146 -68.6689595 0.86415146 -67.2265625 0.8671875 C-65.75049026 0.86520859 -65.75049026 0.86520859 -64.24459839 0.8631897 C-61.03803376 0.86127022 -57.83155577 0.86761107 -54.625 0.875 C-53.54275146 0.87588623 -52.46050293 0.87677246 -51.34545898 0.87768555 C-34.21124404 0.89424034 -17.11571032 1.17323907 0 2 C0 1.34 0 0.68 0 0 Z " fill="#131313" transform="translate(506,212)"/>
<path d="M0 0 C94.38 0 188.76 0 286 0 C286.04033135 91.07266745 286.04033135 91.07266745 286.04882812 129.11132812 C286.05078594 137.81778973 286.0528064 146.52425132 286.05493164 155.23071289 C286.05519539 156.32189543 286.05545914 157.41307796 286.05573088 158.53732663 C286.06007777 176.14354868 286.06796027 193.74976746 286.0771528 211.35598757 C286.08651103 229.43059849 286.09206021 247.50520769 286.09408849 265.57982093 C286.09545921 276.7288586 286.09978539 287.87788702 286.10791647 299.02692185 C286.11321068 306.67676755 286.11479821 314.32660849 286.11350138 321.97645589 C286.11286218 326.38707808 286.11382807 330.79768414 286.11920547 335.20830345 C286.12410101 339.25339995 286.12429857 343.29846957 286.12089889 347.34356735 C286.12047922 348.80004796 286.12172278 350.25653029 286.12488318 351.71300753 C286.14287997 360.52571547 285.81797017 369.22389652 285 378 C284.67 378 284.34 378 284 378 C284 253.92 284 129.84 284 2 C190.94 2 97.88 2 2 2 C2 22.79 2 43.58 2 65 C73.94 65 145.88 65 220 65 C220 65.33 220 65.66 220 66 C147.4 66.33 74.8 66.66 0 67 C0 44.89 0 22.78 0 0 Z " fill="#020202" transform="translate(427,215)"/>
<path d="M0 0 C7.57648998 -0.02557078 15.15296863 -0.04295863 22.72949219 -0.05493164 C25.30143652 -0.05992852 27.87337806 -0.06672827 30.4453125 -0.07543945 C34.16406956 -0.0877102 37.88278873 -0.09327491 41.6015625 -0.09765625 C43.2977623 -0.10539818 43.2977623 -0.10539818 45.02822876 -0.11329651 C53.10961849 -0.11385137 60.88817806 0.42058415 69 1 C69 28.39 69 55.78 69 84 C68.01 84 67.02 84 66 84 C65.97687535 74.36887288 65.95908429 64.73775526 65.94818783 55.10660648 C65.94295926 50.63494451 65.93586211 46.16330147 65.92456055 41.69165039 C65.91373071 37.37988027 65.90772296 33.06812841 65.90512276 28.75634575 C65.90326868 27.10763702 65.8996484 25.45892934 65.89426994 23.81022835 C65.88705822 21.50896128 65.88600911 19.2077706 65.88647461 16.90649414 C65.884254 15.5941127 65.88203339 14.28173126 65.87974548 12.92958069 C66 10 66 10 67 9 C67.33 6.69 67.66 4.38 68 2 C45.89 2 23.78 2 1 2 C1 32.03 1 62.06 1 93 C0.67 93 0.34 93 0 93 C-1.1757836 71.49195849 -0.95566151 50.02476649 -0.5625 28.5 C-0.54327925 27.4469486 -0.54327925 27.4469486 -0.5236702 26.37262344 C-0.36201241 17.58148391 -0.18704436 8.79063791 0 0 Z " fill="#313130" transform="translate(286,492)"/>
<path d="M0 0 C22.11 0 44.22 0 67 0 C67 2.31 67 4.62 67 7 C66.34 7.33 65.68 7.66 65 8 C65 6.02 65 4.04 65 2 C43.88 2 22.76 2 1 2 C1.33 33.35 1.66 64.7 2 97 C1.67 97 1.34 97 1 97 C-0.1922036 92.31566549 -0.13400241 87.78436205 -0.11352539 82.98706055 C-0.11367142 82.08900192 -0.11381744 81.1909433 -0.1139679 80.26567078 C-0.11327287 77.30599528 -0.10549965 74.34638321 -0.09765625 71.38671875 C-0.09579061 69.33120254 -0.0943674 67.27568588 -0.09336853 65.22016907 C-0.08955482 59.81642423 -0.0797343 54.41270637 -0.06866455 49.00897217 C-0.05662486 42.52196561 -0.05204273 36.03495002 -0.04621124 29.54793549 C-0.03652195 19.69860491 -0.01735735 9.8493335 0 0 Z " fill="#020101" transform="translate(287,494)"/>
<path d="M0 0 C1 2 1 2 0.37915039 4.06298828 C-0.13143921 5.30411377 -0.13143921 5.30411377 -0.65234375 6.5703125 C-1.01650391 7.46621094 -1.38066406 8.36210938 -1.75585938 9.28515625 C-2.34077148 10.69087891 -2.34077148 10.69087891 -2.9375 12.125 C-3.51661133 13.54232422 -3.51661133 13.54232422 -4.10742188 14.98828125 C-5.06475846 17.32843735 -6.02919991 19.66540428 -7 22 C-7.66 21.01 -8.32 20.02 -9 19 C-7.625 15.3125 -7.625 15.3125 -6 12 C-5.34 12 -4.68 12 -4 12 C-4.33 11.01 -4.66 10.02 -5 9 C-4.38290413 6.98415349 -3.71706982 4.98248715 -3 3 C-3 2.34 -3 1.68 -3 1 C-2.01 0.67 -1.02 0.34 0 0 Z " fill="#202020" transform="translate(701,640)"/>
<path d="M0 0 C4.10850354 0.69504759 7.84892196 1.91871521 11.75 3.375 C12.89984375 3.79523437 14.0496875 4.21546875 15.234375 4.6484375 C16.14703125 5.09445312 17.0596875 5.54046875 18 6 C18.33 6.99 18.66 7.98 19 9 C12.38757278 7.17778624 6.19479329 4.94776396 0 2 C0 1.34 0 0.68 0 0 Z " fill="#212120" transform="translate(413,765)"/>
<path d="M0 0 C-2.45596893 2.87770097 -4.90889595 3.96687126 -8.4375 5.25 C-9.38496094 5.60578125 -10.33242188 5.9615625 -11.30859375 6.328125 C-14.05874071 7.01466386 -15.38003295 6.96622898 -18 6 C-17.34 6 -16.68 6 -16 6 C-16 5.34 -16 4.68 -16 4 C-13.71144298 3.13656269 -11.4198072 2.2840189 -9.125 1.4375 C-8.47402344 1.19064453 -7.82304688 0.94378906 -7.15234375 0.68945312 C-2.2265625 -1.11328125 -2.2265625 -1.11328125 0 0 Z " fill="#1F1F1F" transform="translate(560,705)"/>
<path d="M0 0 C0.33 0 0.66 0 1 0 C2.17869672 5.65774425 1.89617022 9.50110636 0 15 C-0.99 15.33 -1.98 15.66 -3 16 C-2.68806536 14.27073126 -2.37542638 12.54158956 -2.0625 10.8125 C-1.88847656 9.84957031 -1.71445312 8.88664063 -1.53515625 7.89453125 C-1.0476265 5.25760028 -0.53328895 2.6280095 0 0 Z " fill="#2A2829" transform="translate(643,595)"/>
<path d="M0 0 C3.62276315 1.3255581 6.63505348 2.94346955 9.8125 5.125 C10.60269531 5.66382813 11.39289063 6.20265625 12.20703125 6.7578125 C12.79871094 7.16773438 13.39039063 7.57765625 14 8 C12.02 8.99 12.02 8.99 10 10 C10 9.01 10 8.02 10 7 C9.278125 6.938125 8.55625 6.87625 7.8125 6.8125 C4.13605406 5.75041562 2.48715058 3.84245781 0 1 C0 0.67 0 0.34 0 0 Z " fill="#252524" transform="translate(417,691)"/>
<path d="M0 0 C0.33 0 0.66 0 1 0 C1.99 6.93 2.98 13.86 4 21 C1 19 1 19 0.48828125 16.6796875 C0.43027344 15.75414062 0.37226563 14.82859375 0.3125 13.875 C0.24804688 12.89660156 0.18359375 11.91820312 0.1171875 10.91015625 C-0.02962372 7.26434438 -0.06883276 3.64813613 0 0 Z " fill="#323131" transform="translate(355,582)"/>
<path d="M0 0 C0.66 0 1.32 0 2 0 C3.54296875 1.828125 3.54296875 1.828125 5.1875 4.25 C5.73792969 5.03890625 6.28835938 5.8278125 6.85546875 6.640625 C8 9 8 9 7.67578125 11.296875 C7.45277344 11.85890625 7.22976563 12.4209375 7 13 C5.82479354 11.40207898 4.66008753 9.79643092 3.5 8.1875 C2.8503125 7.29417969 2.200625 6.40085937 1.53125 5.48046875 C0 3 0 3 0 0 Z " fill="#222221" transform="translate(319,681)"/>
<path d="M0 0 C0.99 0 1.98 0 3 0 C3.69685498 1.6210103 4.38222861 3.24696066 5.0625 4.875 C5.63677734 6.23238281 5.63677734 6.23238281 6.22265625 7.6171875 C7 10 7 10 6 12 C5.34 12 4.68 12 4 12 C2.68 8.04 1.36 4.08 0 0 Z " fill="#20201F" transform="translate(360,615)"/>
<path d="M0 0 C0.33 0.66 0.66 1.32 1 2 C-0.8130666 6.63339243 -2.94775971 9.1524798 -7 12 C-7.66 11.34 -8.32 10.68 -9 10 C-8.27683594 9.29423828 -8.27683594 9.29423828 -7.5390625 8.57421875 C-6.90742187 7.95160156 -6.27578125 7.32898438 -5.625 6.6875 C-4.68527344 5.76517578 -4.68527344 5.76517578 -3.7265625 4.82421875 C-1.81913393 2.91187472 -1.81913393 2.91187472 0 0 Z " fill="#262525" transform="translate(612,663)"/>
<path d="M0 0 C2.52394612 3.12488567 4.39701907 6.31314387 6 10 C5.67 10.66 5.34 11.32 5 12 C1.94150832 9.24735748 0.12608621 6.99248748 -1 3 C-0.67 2.01 -0.34 1.02 0 0 Z " fill="#282727" transform="translate(369,632)"/>
<path d="M0 0 C0.33 0.99 0.66 1.98 1 3 C-0.43359375 5.48046875 -0.43359375 5.48046875 -2.4375 8.1875 C-3.09621094 9.08855469 -3.75492188 9.98960937 -4.43359375 10.91796875 C-5.20896484 11.94857422 -5.20896484 11.94857422 -6 13 C-6.33 12.01 -6.66 11.02 -7 10 C-5.56640625 7.51953125 -5.56640625 7.51953125 -3.5625 4.8125 C-2.90378906 3.91144531 -2.24507812 3.01039063 -1.56640625 2.08203125 C-1.04949219 1.39496094 -0.53257812 0.70789063 0 0 Z " fill="#1D1D1C" transform="translate(676,688)"/>
<path d="M0 0 C0 0.66 0 1.32 0 2 C-1.60064843 2.53154742 -3.20568874 3.04988353 -4.8125 3.5625 C-5.70582031 3.85253906 -6.59914063 4.14257812 -7.51953125 4.44140625 C-10 5 -10 5 -13 4 C-12.34 4 -11.68 4 -11 4 C-11 3.34 -11 2.68 -11 2 C-3.375 0 -3.375 0 0 0 Z " fill="#252424" transform="translate(563,774)"/>
<path d="M0 0 C-1 3 -1 3 -2.7421875 3.984375 C-3.44601562 4.23703125 -4.14984375 4.4896875 -4.875 4.75 C-5.57367187 5.01296875 -6.27234375 5.2759375 -6.9921875 5.546875 C-9 6 -9 6 -12 5 C-11.34 5 -10.68 5 -10 5 C-10 4.34 -10 3.68 -10 3 C-8.70990357 2.49596232 -7.41786211 1.99690074 -6.125 1.5 C-5.04605469 1.08234375 -5.04605469 1.08234375 -3.9453125 0.65625 C-2 0 -2 0 0 0 Z " fill="#242424" transform="translate(576,769)"/>
<path d="M0 0 C0.99 0.33 1.98 0.66 3 1 C0.36 2.98 -2.28 4.96 -5 7 C-5.66 6.67 -6.32 6.34 -7 6 C-2.25 1.125 -2.25 1.125 0 0 Z " fill="#282827" transform="translate(620,745)"/>
<path d="M0 0 C0.66 0 1.32 0 2 0 C0.84414715 3.91211733 -0.35534962 6.8745041 -3 10 C-4 7 -4 7 -3.22265625 5.17578125 C-2.1484375 3.45052083 -1.07421875 1.72526042 0 0 Z " fill="#222222" transform="translate(691,662)"/>
<path d="M0 0 C0.66 0 1.32 0 2 0 C2.33 4.95 2.66 9.9 3 15 C2.01 15.33 1.02 15.66 0 16 C0 10.72 0 5.44 0 0 Z " fill="#3D3C3A" transform="translate(644,577)"/>
<path d="M0 0 C3.375 0.25 3.375 0.25 7 1 C8.4375 3.0625 8.4375 3.0625 9 5 C5.22454612 3.90931332 2.52956528 3.0916909 0 0 Z " fill="#2A2A29" transform="translate(401,760)"/>
<path d="M0 0 C0.99 0.33 1.98 0.66 3 1 C4.1875 4.5625 4.1875 4.5625 5 8 C4.34 8.66 3.68 9.32 3 10 C2.01 6.7 1.02 3.4 0 0 Z " fill="#232322" transform="translate(300,643)"/>
<path d="M0 0 C0.33 0 0.66 0 1 0 C0.88490339 1.41750563 0.75746342 2.83401169 0.625 4.25 C0.55539062 5.03890625 0.48578125 5.8278125 0.4140625 6.640625 C-0.01507113 9.085877 -0.78600638 10.84836903 -2 13 C-3.125 7.375 -3.125 7.375 -2 4 C-2 3.34 -2 2.68 -2 2 C-1.34 2 -0.68 2 0 2 C0 1.34 0 0.68 0 0 Z " fill="#2E2E2D" transform="translate(709,610)"/>
<path d="M0 0 C2.07384637 2.28176413 2.98397191 3.44323483 3.07421875 6.578125 C2.94660156 7.45984375 2.81898438 8.3415625 2.6875 9.25 C2.50767578 10.58804688 2.50767578 10.58804688 2.32421875 11.953125 C2.21722656 12.62859375 2.11023438 13.3040625 2 14 C1.67 14 1.34 14 1 14 C0.04738513 9.23692563 -0.08333357 4.8333472 0 0 Z " fill="#393838" transform="translate(287,586)"/>
<path d="M0 0 C1.75 0.125 1.75 0.125 4 1 C6.25 4.0625 6.25 4.0625 8 7 C7.67 7.66 7.34 8.32 7 9 C5.83037314 7.69013727 4.66437056 6.3770374 3.5 5.0625 C2.8503125 4.33160156 2.200625 3.60070312 1.53125 2.84765625 C0 1 0 1 0 0 Z " fill="#2B2A29" transform="translate(340,711)"/>
<path d="M0 0 C0.66 0.33 1.32 0.66 2 1 C1.67 1.99 1.34 2.98 1 4 C-1.5625 5.1875 -1.5625 5.1875 -4 6 C-4.33 5.01 -4.66 4.02 -5 3 C-2.625 1.4375 -2.625 1.4375 0 0 Z " fill="#21201F" transform="translate(580,692)"/>
<path d="M0 0 C2.97 0 5.94 0 9 0 C9 0.66 9 1.32 9 2 C9.99 2.33 10.98 2.66 12 3 C10.56163249 2.88541307 9.12429034 2.75790884 7.6875 2.625 C6.88699219 2.55539062 6.08648437 2.48578125 5.26171875 2.4140625 C3 2 3 2 0 0 Z " fill="#393838" transform="translate(443,777)"/>
<path d="M0 0 C0.66 0 1.32 0 2 0 C1.34 3.3 0.68 6.6 0 10 C-2 6 -2 6 -1.125 2.75 C-0.75375 1.8425 -0.3825 0.935 0 0 Z " fill="#262525" transform="translate(705,624)"/>
<path d="M0 0 C0.99 0.33 1.98 0.66 3 1 C2.67 3.97 2.34 6.94 2 10 C1.01 9.01 0.02 8.02 -1 7 C-0.6875 3.3125 -0.6875 3.3125 0 0 Z " fill="#373635" transform="translate(290,606)"/>
<path d="M0 0 C-0.33 0.99 -0.66 1.98 -1 3 C-4.63 2.67 -8.26 2.34 -12 2 C-12 1.67 -12 1.34 -12 1 C-7.95858806 0.36605303 -4.0934693 -0.12404452 0 0 Z " fill="#3A3838" transform="translate(528,714)"/>
<path d="M0 0 C2.31 1.65 4.62 3.3 7 5 C5.68 5.33 4.36 5.66 3 6 C1.25 4.75 1.25 4.75 0 3 C0 2.01 0 1.02 0 0 Z " fill="#282827" transform="translate(410,685)"/>
<path d="M0 0 C1.9375 0.3125 1.9375 0.3125 4 1 C5 4 5 4 4.0625 6.1875 C3.5365625 7.0846875 3.5365625 7.0846875 3 8 C1.58622659 5.36095629 0.62759865 2.92879371 0 0 Z " fill="#363635" transform="translate(311,669)"/>
<path d="M0 0 C1.32 0.66 2.64 1.32 4 2 C-0.75 5 -0.75 5 -3 5 C-2.67 4.01 -2.34 3.02 -2 2 C-1.34 2 -0.68 2 0 2 C0 1.34 0 0.68 0 0 Z " fill="#252525" transform="translate(602,755)"/>
<path d="M0 0 C4.455 0.99 4.455 0.99 9 2 C5 4 5 4 2.8125 3.8125 C2.214375 3.544375 1.61625 3.27625 1 3 C0.67 2.01 0.34 1.02 0 0 Z " fill="#2E2D2C" transform="translate(446,707)"/>
<path d="M0 0 C0.66 0.33 1.32 0.66 2 1 C1.1875 3.9375 1.1875 3.9375 0 7 C-0.99 7.33 -1.98 7.66 -3 8 C-1.125 2.25 -1.125 2.25 0 0 Z " fill="#272725" transform="translate(631,633)"/>
<path d="M0 0 C0.33 0.66 0.66 1.32 1 2 C1.66 2 2.32 2 3 2 C3.625 4.3125 3.625 4.3125 4 7 C3.01 8.485 3.01 8.485 2 10 C1.34 6.7 0.68 3.4 0 0 Z " fill="#302F2E" transform="translate(294,624)"/>
<path d="M0 0 C0.33 0 0.66 0 1 0 C1 2.31 1 4.62 1 7 C0.67 7 0.34 7 0 7 C0 4.69 0 2.38 0 0 Z " fill="#434242" transform="translate(644,473)"/>
<path d="M0 0 C0.99 0 1.98 0 3 0 C2.67 1.32 2.34 2.64 2 4 C1.34 2.68 0.68 1.36 0 0 Z " fill="#41403F" transform="translate(642,284)"/>
<path d="M0 0 C1 4 1 4 1 4 Z " fill="#424040" transform="translate(644,540)"/>
<path d="M0 0 C1 4 1 4 1 4 Z " fill="#424140" transform="translate(644,516)"/>
<path d="M0 0 C1 4 1 4 1 4 Z " fill="#424140" transform="translate(644,500)"/>
<path d="M0 0 C1 4 1 4 1 4 Z " fill="#424141" transform="translate(644,490)"/>
<path d="M0 0 C1 4 1 4 1 4 Z " fill="#434242" transform="translate(644,468)"/>
<path d="M0 0 C1 4 1 4 1 4 Z " fill="#41423F" transform="translate(644,428)"/>
<path d="M0 0 C1 4 1 4 1 4 Z " fill="#3D3D3D" transform="translate(644,332)"/>
<path d="M0 0 C4 1 4 1 4 1 Z " fill="#454442" transform="translate(516,212)"/>
<path d="M0 0 C0.66 0.66 1.32 1.32 2 2 C1.34 2 0.68 2 0 2 C0 1.34 0 0.68 0 0 Z " fill="#464340" transform="translate(520,712)"/>
<path d="M0 0 C0.33 0.66 0.66 1.32 1 2 C0.34 1.67 -0.32 1.34 -1 1 C-0.67 0.67 -0.34 0.34 0 0 Z " fill="#434241" transform="translate(321,688)"/>
<path d="M0 0 C0.33 0.66 0.66 1.32 1 2 C0.34 1.67 -0.32 1.34 -1 1 C-0.67 0.67 -0.34 0.34 0 0 Z " fill="#403F3F" transform="translate(625,640)"/>
<path d="" fill="#403F3E" transform="translate(0,0)"/>
<path d="" fill="#3F3F3E" transform="translate(0,0)"/>
<path d="M0 0 C2 1 2 1 2 1 Z " fill="#413F3E" transform="translate(425,773)"/>
<path d="M0 0 C2 1 2 1 2 1 Z " fill="#42403E" transform="translate(479,713)"/>
<path d="M0 0 C2 1 2 1 2 1 Z " fill="#444340" transform="translate(526,712)"/>
<path d="M0 0 C2 1 2 1 2 1 Z " fill="#454040" transform="translate(522,712)"/>
<path d="" fill="#3A3939" transform="translate(0,0)"/>
<path d="M0 0 C2 1 2 1 2 1 Z " fill="#3D3D3C" transform="translate(429,696)"/>
<path d="" fill="#43413E" transform="translate(0,0)"/>
<path d="" fill="#434341" transform="translate(0,0)"/>
<path d="M0 0 C2 1 2 1 2 1 Z " fill="#444241" transform="translate(305,663)"/>
<path d="" fill="#444344" transform="translate(0,0)"/>
<path d="" fill="#454442" transform="translate(0,0)"/>
<path d="" fill="#454343" transform="translate(0,0)"/>
<path d="" fill="#444241" transform="translate(0,0)"/>
<path d="" fill="#424342" transform="translate(0,0)"/>
<path d="" fill="#424240" transform="translate(0,0)"/>
<path d="" fill="#424240" transform="translate(0,0)"/>
<path d="" fill="#434241" transform="translate(0,0)"/>
<path d="" fill="#434242" transform="translate(0,0)"/>
<path d="" fill="#414041" transform="translate(0,0)"/>
<path d="" fill="#434341" transform="translate(0,0)"/>
<path d="" fill="#41413F" transform="translate(0,0)"/>
<path d="" fill="#404140" transform="translate(0,0)"/>
<path d="" fill="#414140" transform="translate(0,0)"/>
<path d="" fill="#404040" transform="translate(0,0)"/>
<path d="" fill="#403F40" transform="translate(0,0)"/>
<path d="" fill="#3F3E3D" transform="translate(0,0)"/>
<path d="" fill="#3F3F3E" transform="translate(0,0)"/>
<path d="" fill="#3E3E3E" transform="translate(0,0)"/>
<path d="" fill="#3E3E3E" transform="translate(0,0)"/>
<path d="" fill="#3D3D3C" transform="translate(0,0)"/>
<path d="" fill="#3F3E3D" transform="translate(0,0)"/>
<path d="M0 0 C2 1 2 1 2 1 Z " fill="#464443" transform="translate(515,286)"/>
<path d="M0 0 C2 1 2 1 2 1 Z " fill="#454441" transform="translate(660,212)"/>
<path d="M0 0 C2 1 2 1 2 1 Z " fill="#454442" transform="translate(604,212)"/>
<path d="" fill="#474444" transform="translate(0,0)"/>
<path d="" fill="#454544" transform="translate(0,0)"/>
<path d="" fill="#474545" transform="translate(0,0)"/>
<path d="" fill="#464644" transform="translate(0,0)"/>
<path d="" fill="#444240" transform="translate(0,0)"/>
<path d="" fill="#434441" transform="translate(0,0)"/>
<path d="" fill="#42413F" transform="translate(0,0)"/>
<path d="" fill="#454343" transform="translate(0,0)"/>
<path d="" fill="#42403E" transform="translate(0,0)"/>
<path d="" fill="#444340" transform="translate(0,0)"/>
<path d="" fill="#414141" transform="translate(0,0)"/>
<path d="" fill="#444442" transform="translate(0,0)"/>
<path d="" fill="#424340" transform="translate(0,0)"/>
<path d="" fill="#3F3B3B" transform="translate(0,0)"/>
<path d="" fill="#464341" transform="translate(0,0)"/>
<path d="" fill="#40403D" transform="translate(0,0)"/>
<path d="" fill="#434242" transform="translate(0,0)"/>
<path d="" fill="#3E3E3C" transform="translate(0,0)"/>
<path d="" fill="#424341" transform="translate(0,0)"/>
<path d="" fill="#464343" transform="translate(0,0)"/>
<path d="" fill="#484544" transform="translate(0,0)"/>
<path d="" fill="#454343" transform="translate(0,0)"/>
<path d="" fill="#464241" transform="translate(0,0)"/>
<path d="" fill="#3D3B3A" transform="translate(0,0)"/>
<path d="" fill="#444341" transform="translate(0,0)"/>
<path d="" fill="#393939" transform="translate(0,0)"/>
<path d="" fill="#444241" transform="translate(0,0)"/>
<path d="" fill="#444241" transform="translate(0,0)"/>
<path d="" fill="#3E3E3C" transform="translate(0,0)"/>
<path d="" fill="#3E3B3C" transform="translate(0,0)"/>
<path d="" fill="#444040" transform="translate(0,0)"/>
<path d="" fill="#454444" transform="translate(0,0)"/>
<path d="" fill="#40403C" transform="translate(0,0)"/>
<path d="" fill="#44413F" transform="translate(0,0)"/>
<path d="" fill="#444343" transform="translate(0,0)"/>
<path d="" fill="#423E3E" transform="translate(0,0)"/>
<path d="" fill="#464543" transform="translate(0,0)"/>
<path d="" fill="#3D3D3A" transform="translate(0,0)"/>
<path d="" fill="#424140" transform="translate(0,0)"/>
<path d="" fill="#3F3D3D" transform="translate(0,0)"/>
<path d="" fill="#3C3939" transform="translate(0,0)"/>
<path d="" fill="#434543" transform="translate(0,0)"/>
<path d="" fill="#454543" transform="translate(0,0)"/>
<path d="" fill="#41403E" transform="translate(0,0)"/>
<path d="" fill="#3F3D3D" transform="translate(0,0)"/>
<path d="" fill="#3F403D" transform="translate(0,0)"/>
<path d="" fill="#474444" transform="translate(0,0)"/>
<path d="" fill="#474343" transform="translate(0,0)"/>
<path d="" fill="#42403E" transform="translate(0,0)"/>
<path d="" fill="#434141" transform="translate(0,0)"/>
<path d="" fill="#42403F" transform="translate(0,0)"/>
<path d="" fill="#44413F" transform="translate(0,0)"/>
<path d="" fill="#3D3B3A" transform="translate(0,0)"/>
<path d="" fill="#3E3E3A" transform="translate(0,0)"/>
<path d="" fill="#434240" transform="translate(0,0)"/>
<path d="" fill="#42403C" transform="translate(0,0)"/>
<path d="" fill="#413F3D" transform="translate(0,0)"/>
<path d="" fill="#413F3E" transform="translate(0,0)"/>
<path d="" fill="#3F3E3D" transform="translate(0,0)"/>
<path d="" fill="#444043" transform="translate(0,0)"/>
<path d="" fill="#444242" transform="translate(0,0)"/>
<path d="" fill="#413F3E" transform="translate(0,0)"/>
<path d="" fill="#454141" transform="translate(0,0)"/>
<path d="" fill="#444141" transform="translate(0,0)"/>
<path d="" fill="#444142" transform="translate(0,0)"/>
<path d="" fill="#444341" transform="translate(0,0)"/>
<path d="" fill="#444240" transform="translate(0,0)"/>
<path d="" fill="#403E3E" transform="translate(0,0)"/>
<path d="" fill="#444443" transform="translate(0,0)"/>
<path d="" fill="#3F403E" transform="translate(0,0)"/>
<path d="" fill="#454445" transform="translate(0,0)"/>
<path d="" fill="#444342" transform="translate(0,0)"/>
<path d="" fill="#41413F" transform="translate(0,0)"/>
<path d="" fill="#42413F" transform="translate(0,0)"/>
<path d="" fill="#414341" transform="translate(0,0)"/>
<path d="" fill="#444242" transform="translate(0,0)"/>
<path d="" fill="#404140" transform="translate(0,0)"/>
<path d="" fill="#434140" transform="translate(0,0)"/>
<path d="" fill="#424041" transform="translate(0,0)"/>
<path d="" fill="#414041" transform="translate(0,0)"/>
<path d="" fill="#444442" transform="translate(0,0)"/>
<path d="" fill="#434142" transform="translate(0,0)"/>
<path d="" fill="#434241" transform="translate(0,0)"/>
<path d="" fill="#414041" transform="translate(0,0)"/>
<path d="" fill="#424442" transform="translate(0,0)"/>
<path d="" fill="#444142" transform="translate(0,0)"/>
<path d="" fill="#444343" transform="translate(0,0)"/>
<path d="" fill="#444343" transform="translate(0,0)"/>
<path d="" fill="#414240" transform="translate(0,0)"/>
<path d="" fill="#494847" transform="translate(0,0)"/>
<path d="" fill="#474644" transform="translate(0,0)"/>
<path d="" fill="#484646" transform="translate(0,0)"/>
<path d="" fill="#474844" transform="translate(0,0)"/>
<path d="" fill="#494A46" transform="translate(0,0)"/>
<path d="" fill="#4A4849" transform="translate(0,0)"/>
<path d="" fill="#4B4948" transform="translate(0,0)"/>
<path d="" fill="#4B4A48" transform="translate(0,0)"/>
<path d="" fill="#444341" transform="translate(0,0)"/>
<path d="" fill="#444340" transform="translate(0,0)"/>
<path d="" fill="#444443" transform="translate(0,0)"/>
<path d="" fill="#444243" transform="translate(0,0)"/>
<path d="" fill="#444442" transform="translate(0,0)"/>
<path d="" fill="#434341" transform="translate(0,0)"/>
<path d="" fill="#434242" transform="translate(0,0)"/>
<path d="" fill="#444442" transform="translate(0,0)"/>
<path d="" fill="#454342" transform="translate(0,0)"/>
<path d="" fill="#424241" transform="translate(0,0)"/>
<path d="" fill="#444342" transform="translate(0,0)"/>
<path d="" fill="#434140" transform="translate(0,0)"/>
<path d="" fill="#444240" transform="translate(0,0)"/>
<path d="" fill="#42423F" transform="translate(0,0)"/>
<path d="" fill="#433F40" transform="translate(0,0)"/>
<path d="" fill="#434242" transform="translate(0,0)"/>
<path d="" fill="#43403F" transform="translate(0,0)"/>
<path d="" fill="#41403E" transform="translate(0,0)"/>
<path d="" fill="#424240" transform="translate(0,0)"/>
<path d="" fill="#3F3F3F" transform="translate(0,0)"/>
<path d="" fill="#404140" transform="translate(0,0)"/>
<path d="" fill="#414340" transform="translate(0,0)"/>
<path d="" fill="#424140" transform="translate(0,0)"/>
<path d="" fill="#41403E" transform="translate(0,0)"/>
<path d="" fill="#413F3F" transform="translate(0,0)"/>
<path d="" fill="#414042" transform="translate(0,0)"/>
<path d="" fill="#413F3E" transform="translate(0,0)"/>
<path d="" fill="#41403E" transform="translate(0,0)"/>
<path d="" fill="#3F3F40" transform="translate(0,0)"/>
<path d="" fill="#40403E" transform="translate(0,0)"/>
<path d="" fill="#403E3F" transform="translate(0,0)"/>
<path d="" fill="#3E403E" transform="translate(0,0)"/>
<path d="" fill="#414040" transform="translate(0,0)"/>
<path d="" fill="#3F3F3E" transform="translate(0,0)"/>
<path d="" fill="#403E3F" transform="translate(0,0)"/>
<path d="" fill="#3F3E3F" transform="translate(0,0)"/>
<path d="" fill="#403E3E" transform="translate(0,0)"/>
<path d="" fill="#464545" transform="translate(0,0)"/>
<path d="" fill="#474646" transform="translate(0,0)"/>
<path d="" fill="#454544" transform="translate(0,0)"/>
<path d="" fill="#474444" transform="translate(0,0)"/>
<path d="" fill="#484545" transform="translate(0,0)"/>
<path d="" fill="#484644" transform="translate(0,0)"/>
<path d="" fill="#484A48" transform="translate(0,0)"/>
<path d="" fill="#4C4B48" transform="translate(0,0)"/>
<path d="" fill="#444345" transform="translate(0,0)"/>
<path d="" fill="#474545" transform="translate(0,0)"/>
<path d="" fill="#444443" transform="translate(0,0)"/>
<path d="" fill="#444444" transform="translate(0,0)"/>
<path d="" fill="#454344" transform="translate(0,0)"/>
<path d="" fill="#4D4C4B" transform="translate(0,0)"/>
<path d="" fill="#454443" transform="translate(0,0)"/>
<path d="" fill="#454343" transform="translate(0,0)"/>
<path d="" fill="#454442" transform="translate(0,0)"/>
<path d="" fill="#464544" transform="translate(0,0)"/>
<path d="" fill="#434141" transform="translate(0,0)"/>
<path d="" fill="#474442" transform="translate(0,0)"/>
<path d="" fill="#454342" transform="translate(0,0)"/>
<path d="" fill="#424140" transform="translate(0,0)"/>
<path d="" fill="#474446" transform="translate(0,0)"/>
<path d="" fill="#464644" transform="translate(0,0)"/>
<path d="" fill="#444243" transform="translate(0,0)"/>
<path d="" fill="#454644" transform="translate(0,0)"/>
<path d="" fill="#464545" transform="translate(0,0)"/>
<path d="" fill="#454443" transform="translate(0,0)"/>
<path d="" fill="#454243" transform="translate(0,0)"/>
<path d="" fill="#454442" transform="translate(0,0)"/>
<path d="" fill="#454442" transform="translate(0,0)"/>
<path d="" fill="#454442" transform="translate(0,0)"/>
<path d="" fill="#454443" transform="translate(0,0)"/>
<path d="" fill="#454442" transform="translate(0,0)"/>
<path d="" fill="#454243" transform="translate(0,0)"/>
<path d="" fill="#474544" transform="translate(0,0)"/>
<path d="" fill="#444743" transform="translate(0,0)"/>
<path d="" fill="#444542" transform="translate(0,0)"/>
<path d="" fill="#444445" transform="translate(0,0)"/>
<path d="" fill="#464443" transform="translate(0,0)"/>
<path d="" fill="#454442" transform="translate(0,0)"/>
<path d="" fill="#444140" transform="translate(0,0)"/>
<path d="" fill="#464343" transform="translate(0,0)"/>
<path d="" fill="#434141" transform="translate(0,0)"/>
<path d="" fill="#474644" transform="translate(0,0)"/>
<path d="" fill="#474544" transform="translate(0,0)"/>
<path d="" fill="#454744" transform="translate(0,0)"/>
<path d="" fill="#474844" transform="translate(0,0)"/>
<path d="" fill="#494644" transform="translate(0,0)"/>
<path d="" fill="#464543" transform="translate(0,0)"/>
</svg>
